<svg xmlns="http://www.w3.org/2000/svg" width="48" height="46" fill="none" viewBox="0 0 48 46">
  <defs>
    <linearGradient id="g1" x1="0" y1="0" x2="1" y2="1">
      <stop offset="0%" stop-color="#0078d4"/>
      <stop offset="100%" stop-color="#00c8ff"/>
    </linearGradient>
    <linearGradient id="g2" x1="0" y1="0" x2="1" y2="1">
      <stop offset="0%" stop-color="#00c8ff" stop-opacity="0.18"/>
      <stop offset="100%" stop-color="#0078d4" stop-opacity="0.05"/>
    </linearGradient>
    <mask id="a">
      <path fill="white" d="M25.946 44.938c-.664.845-2.021.375-2.021-.698V33.937a2.26 2.26 0 0 0-2.262-2.262H10.287c-.92 0-1.456-1.04-.92-1.788l7.48-10.471c1.07-1.497 0-3.578-1.842-3.578H1.237c-.92 0-1.456-1.04-.92-1.788L10.013.474c.214-.297.556-.474.92-.474h28.894c.92 0 1.456 1.04.92 1.788l-7.48 10.471c-1.07 1.498 0 3.579 1.842 3.579h11.377c.943 0 1.473 1.088.89 1.83L25.947 44.94z"/>
    </mask>
  </defs>

  <!-- Main bolt shape filled with gradient -->
  <path fill="url(#g1)"
    d="M25.946 44.938c-.664.845-2.021.375-2.021-.698V33.937a2.26 2.26 0 0 0-2.262-2.262H10.287c-.92 0-1.456-1.04-.92-1.788l7.48-10.471c1.07-1.497 0-3.578-1.842-3.578H1.237c-.92 0-1.456-1.04-.92-1.788L10.013.474c.214-.297.556-.474.92-.474h28.894c.92 0 1.456 1.04.92 1.788l-7.48 10.471c-1.07 1.498 0 3.579 1.842 3.579h11.377c.943 0 1.473 1.088.89 1.83L25.947 44.94z"/>

  <!-- Highlight sheen clipped to shape -->
  <g mask="url(#a)">
    <ellipse cx="18" cy="8" rx="20" ry="10"
      fill="url(#g2)" transform="rotate(-10 18 8)"/>
    <rect x="0" y="14" width="48" height="3" fill="#00e5ff" opacity="0.12"/>
  </g>
</svg>
